<?xml version="1.0" encoding="UTF-8"?>
<svg id="Layer_1" xmlns="http://www.w3.org/2000/svg" version="1.1" viewBox="0 0 500 54.34">
  <!-- Generator: Adobe Illustrator 29.7.1, SVG Export Plug-In . SVG Version: 2.1.1 Build 8)  -->
  <defs>
    <style>
      .st0 {
        fill: #00cfea;
      }
    </style>
  </defs>
  <g>
    <g>
      <path class="st0" d="M144,3.82v3.89h-20.68v17.52h17.45v3.89h-17.45v21.62h-4.7V3.82h25.38,0Z"/>
      <path class="st0" d="M181.92,14.09v36.65h-4.7v-6.44c-1.07,2.28-2.73,4.03-4.97,5.24s-4.74,1.81-7.52,1.81c-4.39,0-7.97-1.35-10.74-4.06-2.78-2.71-4.16-6.63-4.16-11.78V14.09h4.63v20.88c0,3.98,1,7.03,2.99,9.13,1.99,2.1,4.71,3.16,8.16,3.16s6.35-1.12,8.46-3.36c2.1-2.24,3.16-5.53,3.16-9.87V14.09h4.7-.01Z"/>
      <path class="st0" d="M199.2,18.05v22.76c0,2.24.42,3.78,1.28,4.63.85.85,2.35,1.28,4.5,1.28h4.3v4.03h-5.03c-3.31,0-5.77-.77-7.38-2.32-1.61-1.54-2.42-4.08-2.42-7.62v-22.76h-5.1v-3.96h5.1v-7.71l4.77-2.03v9.73h10.07v3.96h-10.09Z"/>
      <path class="st0" d="M248.91,14.09v36.65h-4.7v-6.44c-1.07,2.28-2.73,4.03-4.97,5.24s-4.74,1.81-7.52,1.81c-4.39,0-7.97-1.35-10.74-4.06-2.78-2.71-4.16-6.63-4.16-11.78V14.09h4.63v20.88c0,3.98,1,7.03,2.99,9.13,1.99,2.1,4.71,3.16,8.16,3.16s6.35-1.12,8.46-3.36c2.1-2.24,3.16-5.53,3.16-9.87V14.09h4.7-.01Z"/>
      <path class="st0" d="M269.57,15.3c2.13-1.25,4.73-1.88,7.82-1.88v4.9h-1.28c-3.4,0-6.13.92-8.19,2.75-2.06,1.84-3.09,4.9-3.09,9.2v20.48h-4.7V14.09h4.7v6.51c1.03-2.28,2.61-4.05,4.73-5.3h0Z"/>
      <path class="st0" d="M316.28,34.23h-30.41c.13,2.78.81,5.15,2.01,7.12,1.21,1.97,2.8,3.46,4.77,4.46,1.97,1.01,4.12,1.51,6.44,1.51,3.04,0,5.61-.74,7.69-2.22,2.08-1.48,3.46-3.47,4.13-5.97h4.97c-.9,3.58-2.81,6.5-5.74,8.76s-6.61,3.39-11.04,3.39c-3.45,0-6.53-.77-9.26-2.32-2.73-1.54-4.87-3.74-6.41-6.58s-2.32-6.16-2.32-9.97.76-7.14,2.28-10,3.65-5.06,6.38-6.58,5.84-2.28,9.33-2.28,6.55.76,9.16,2.28c2.62,1.52,4.63,3.57,6.04,6.14s2.12,5.43,2.12,8.56c0,1.61-.05,2.84-.13,3.69h0ZM310,23.42c-1.14-1.92-2.7-3.38-4.67-4.36-1.97-.98-4.12-1.48-6.44-1.48-3.49,0-6.47,1.12-8.93,3.36s-3.83,5.39-4.09,9.47h25.78c.04-2.73-.5-5.06-1.64-6.98h0Z"/>
    </g>
    <g>
      <path class="st0" d="M332.17,49.54c-2.62-1.12-4.69-2.73-6.21-4.83-1.52-2.1-2.31-4.59-2.35-7.45h10.07c.13,1.92.82,3.45,2.05,4.56,1.23,1.12,2.92,1.68,5.07,1.68s3.92-.53,5.17-1.58c1.25-1.05,1.88-2.43,1.88-4.13,0-1.39-.43-2.53-1.28-3.42-.85-.89-1.91-1.6-3.19-2.11-1.28-.51-3.03-1.08-5.27-1.71-3.04-.89-5.52-1.78-7.42-2.65-1.9-.87-3.54-2.19-4.9-3.96-1.37-1.77-2.05-4.13-2.05-7.08,0-2.77.69-5.19,2.08-7.25,1.39-2.06,3.33-3.64,5.84-4.73,2.51-1.1,5.37-1.64,8.59-1.64,4.83,0,8.76,1.17,11.78,3.52s4.69,5.63,5,9.84h-10.34c-.09-1.61-.77-2.94-2.05-3.99-1.28-1.05-2.97-1.58-5.07-1.58-1.84,0-3.3.47-4.4,1.41s-1.64,2.31-1.64,4.09c0,1.25.41,2.29,1.24,3.12.83.83,1.86,1.5,3.09,2.01,1.23.52,2.96,1.11,5.2,1.78,3.04.9,5.53,1.79,7.45,2.69s3.58,2.24,4.97,4.03,2.08,4.14,2.08,7.05c0,2.51-.65,4.83-1.95,6.98-1.3,2.15-3.2,3.86-5.71,5.14-2.51,1.28-5.48,1.91-8.93,1.91-3.27,0-6.21-.56-8.83-1.68l.03-.02Z"/>
      <path class="st0" d="M376.92,21.27v17.99c0,1.25.3,2.16.91,2.72.6.56,1.62.84,3.05.84h4.36v7.92h-5.91c-7.92,0-11.88-3.85-11.88-11.55v-17.92h-4.43v-7.72h4.43v-5.24l9.47-3.96v9.2h8.32v7.72h-8.32,0Z"/>
      <path class="st0" d="M392.45,22.01c1.5-2.91,3.54-5.15,6.11-6.71,2.57-1.57,5.45-2.35,8.63-2.35,2.77,0,5.2.56,7.28,1.68s3.75,2.53,5,4.23v-5.3h9.47v37.19h-9.47v-5.44c-1.21,1.75-2.88,3.19-5,4.33-2.13,1.14-4.58,1.71-7.35,1.71-3.13,0-5.99-.81-8.56-2.42-2.57-1.61-4.61-3.88-6.11-6.81s-2.25-6.3-2.25-10.1.75-7.09,2.25-10h0ZM418.13,26.27c-.9-1.63-2.1-2.89-3.63-3.76-1.52-.87-3.16-1.31-4.9-1.31s-3.36.43-4.83,1.28c-1.48.85-2.67,2.09-3.59,3.73-.92,1.63-1.38,3.57-1.38,5.81s.46,4.2,1.38,5.87c.92,1.68,2.13,2.97,3.63,3.86,1.5.9,3.1,1.34,4.8,1.34s3.38-.44,4.9-1.31c1.52-.87,2.73-2.13,3.63-3.76.89-1.63,1.34-3.59,1.34-5.87s-.45-4.24-1.34-5.87h-.01Z"/>
      <path class="st0" d="M449.86,21.27v17.99c0,1.25.3,2.16.91,2.72.6.56,1.62.84,3.05.84h4.36v7.92h-5.91c-7.92,0-11.88-3.85-11.88-11.55v-17.92h-4.43v-7.72h4.43v-5.24l9.47-3.96v9.2h8.32v7.72h-8.32,0Z"/>
      <path class="st0" d="M499.67,34.97h-27.19c.22,2.69,1.16,4.79,2.82,6.31s3.69,2.28,6.11,2.28c3.49,0,5.97-1.5,7.45-4.5h10.14c-1.07,3.58-3.13,6.52-6.18,8.83-3.04,2.31-6.78,3.46-11.21,3.46-3.58,0-6.79-.79-9.63-2.38s-5.06-3.84-6.65-6.75-2.38-6.27-2.38-10.07.78-7.23,2.35-10.14,3.76-5.15,6.58-6.71c2.82-1.57,6.06-2.35,9.73-2.35s6.7.76,9.5,2.28,4.97,3.68,6.51,6.48c1.54,2.8,2.32,6.01,2.32,9.63,0,1.34-.09,2.55-.27,3.63h0ZM490.2,28.66c-.05-2.42-.92-4.35-2.62-5.81-1.7-1.45-3.78-2.18-6.24-2.18-2.33,0-4.29.7-5.87,2.11-1.59,1.41-2.56,3.37-2.92,5.87h17.66-.01Z"/>
    </g>
  </g>
  <path class="st0" d="M87.46,29l3.31,8.54c.14.35-.12.73-.5.73h-6.62c-.38,0-.64-.38-.5-.73l3.31-8.54c.18-.46.83-.46,1,0Z"/>
  <path class="st0" d="M90.84,21.27L45.83,1.82c-.14-.06-.29-.06-.43,0L.39,21.27c-.43.19-.43.8,0,.99l24.56,10.61-11.36,4.91c-.43.19-.43.8,0,.99l31.81,13.75c.14.06.29.06.43,0l31.81-13.75c.43-.19.43-.8,0-.99l-11.36-4.91-20.66,8.93-20.66-8.93,20.66-8.93,20.66,8.93,24.56-10.61c.43-.19.43-.8,0-.99Z"/>
</svg>